# xmcd CD database file
#
# Track frame offsets:
#	150
#	30154
#	48952
#	63799
#	94286
#	109003
#	131138
#	133557
#	143663
#	149077
#	174320
#	191305
#	209433
#	225291
#	226716
#	231912
#	235062
#	241330
#	259549
#
# Disc length: 3536 seconds
#
# Revision: 0
# Processed by: cddbd v1.5.1PL0 Copyright (c) Steve Scherf et al.
# Submitted via: CDex 1.51
#
DISCID=f60dce13
DTITLE=Ray Carlisle - Crome
DYEAR=2003
DGENRE=Country
TTITLE0=The Heartbeat
TTITLE1=Crome
TTITLE2=Zig Zags
TTITLE3=Ray's Radio
TTITLE4=Workin' girls
TTITLE5=Good Advice
TTITLE6=Troops
TTITLE7=Cow Jokes
TTITLE8=Cow Truckin'
TTITLE9=Worried and Unhappy
TTITLE10=Left Lane info.
TTITLE11=Little Ray
TTITLE12=Briefcase
TTITLE13=Fuel Tank
TTITLE14=Bob Tail Pete
TTITLE15=OKC Song
TTITLE16=Ad This
TTITLE17=Serenity
TTITLE18=The End
EXTD=YEAR: 2003
EXTT0=
EXTT1=
EXTT2=
EXTT3=
EXTT4=
EXTT5=
EXTT6=
EXTT7=
EXTT8=
EXTT9=
EXTT10=
EXTT11=
EXTT12=
EXTT13=
EXTT14=
EXTT15=
EXTT16=
EXTT17=
EXTT18=
PLAYORDER=
